<svg width="48" height="48" viewBox="0 0 48 48" fill="none" xmlns="http://www.w3.org/2000/svg">
<path d="M30.4796 16.7953L32 27.5L22.4892 44.9745L2.5339 25.5674L19 16.7953L30.4796 16.7953Z" fill="#E3DFD2"/>
<path d="M47.3438 3.84375C48.2188 2.78125 48.2188 1.71875 47.3438 0.65625C46.2813 -0.21875 45.2188 -0.21875 44.1563 0.65625L31.4063 13.4062L30.1875 12.1875C29.1875 11.25 28.0625 10.6875 26.8125 10.5C25.5 10.3125 24.25 10.5312 23.0625 11.1562L1.5 23.1563C0.5625 23.7188 0.0625 24.5938 0 25.7813C0 26.5938 0.28125 27.2813 0.84375 27.8438L20.1563 47.1563C20.7188 47.7188 21.4063 48 22.2188 48C23.4063 47.9375 24.2813 47.4375 24.8438 46.5L36.8438 24.9375C37.4688 23.75 37.6875 22.5 37.5 21.1875C37.3125 19.9375 36.75 18.8125 35.8125 17.8125L34.5938 16.5937L47.3438 3.84375ZM30.375 27.375L21.9375 42.5625L12.8438 33.4687L14.5313 28.4063C14.5938 27.7188 14.2813 27.4063 13.5938 27.4688L8.53125 29.1562L5.4375 26.1563L20.7188 17.7187L30.375 27.375Z" fill="#432818" fill-opacity="0.7"/>
</svg>
