<svg xmlns="http://www.w3.org/2000/svg" width="46" height="48" fill="none">
  <path fill="#432818" fill-opacity=".8"
    d="M23 0c1.625 0 3.187.156 4.687.469.375.062.844.219 1.406.469.5.312.938.78 1.313 1.406.188.312.344.687.469 1.125l.843 3.562c.125.313.344.563.657.75.312.188.625.25.937.188l3.563-1.032A3.54 3.54 0 0 1 38 6.75c.75 0 1.375.156 1.875.469.562.312.968.625 1.218.937 2.063 2.375 3.594 5.094 4.594 8.156.188.375.282.844.282 1.407.062.625-.094 1.25-.47 1.875l-.75.937-2.718 2.532c-.188.25-.281.562-.281.937s.093.688.281.938l2.719 2.53.75.938c.312.688.468 1.313.468 1.875 0 .625-.093 1.094-.28 1.407-1 3.062-2.532 5.78-4.595 8.156-.25.312-.656.625-1.218.937-.5.313-1.125.469-1.875.469a3.54 3.54 0 0 1-1.125-.188l-3.563-1.03c-.312-.063-.625 0-.937.187a1.522 1.522 0 0 0-.657.75l-.843 3.562a4.685 4.685 0 0 1-.469 1.125c-.375.625-.813 1.094-1.313 1.407-.562.25-1.03.406-1.406.468A22.93 22.93 0 0 1 23 48a22.93 22.93 0 0 1-4.688-.469c-.375-.062-.844-.218-1.406-.468-.5-.313-.937-.782-1.312-1.407a4.685 4.685 0 0 1-.47-1.125l-.843-3.562a1.523 1.523 0 0 0-.656-.75c-.313-.188-.625-.25-.938-.188l-3.562 1.032A3.54 3.54 0 0 1 8 41.25c-.75 0-1.375-.156-1.875-.469-.563-.312-.938-.625-1.125-.937a22.63 22.63 0 0 1-4.688-8.157c-.187-.375-.281-.843-.281-1.406-.063-.625.094-1.25.469-1.875l.75-.937 2.718-2.532c.188-.25.282-.562.282-.937s-.094-.688-.282-.938l-2.718-2.53-.75-.938c-.375-.688-.532-1.313-.469-1.875 0-.625.094-1.094.281-1.407 1-3 2.563-5.718 4.688-8.156.187-.312.562-.625 1.125-.937.5-.313 1.125-.469 1.875-.469.375 0 .75.063 1.125.188l3.562 1.03c.313.063.625 0 .938-.187.312-.187.531-.437.656-.75l.844-3.562c.125-.438.281-.813.469-1.125.375-.625.812-1.094 1.312-1.406.563-.25 1.031-.407 1.406-.47A22.93 22.93 0 0 1 23 0Zm-3.563 4.781-.75 3.375c-.437 1.5-1.375 2.656-2.812 3.469-1.438.813-2.938 1.031-4.5.656l-3.188-.937a19.06 19.06 0 0 0-3.562 6.187l2.437 2.344C8.187 21 8.75 22.375 8.75 24s-.563 3.031-1.688 4.219l-2.437 2.25a19.06 19.06 0 0 0 3.562 6.187l3.282-.937c1.5-.438 2.968-.219 4.406.656 1.437.813 2.375 1.969 2.812 3.469l.75 3.375c2.375.375 4.75.375 7.125 0l.844-3.375c.438-1.5 1.344-2.657 2.719-3.469 1.437-.813 2.937-1.031 4.5-.656l3.187.937a19.06 19.06 0 0 0 3.563-6.187l-2.438-2.344C37.812 27 37.25 25.625 37.25 24s.562-3.031 1.687-4.219l2.438-2.25a19.06 19.06 0 0 0-3.563-6.187l-3.187.937c-1.563.438-3.063.219-4.5-.656-1.375-.813-2.282-2-2.719-3.563l-.844-3.28a22.703 22.703 0 0 0-7.125 0ZM18.5 24c.062 1.688.812 3 2.25 3.938 1.5.75 3 .75 4.5 0C26.687 27 27.437 25.688 27.5 24c-.063-1.688-.813-3-2.25-3.938-1.5-.75-3-.75-4.5 0-1.438.938-2.188 2.25-2.25 3.938Zm4.5 9a8.686 8.686 0 0 1-4.5-1.219 9.172 9.172 0 0 1-3.281-3.281c-.813-1.438-1.22-2.938-1.22-4.5 0-1.563.407-3.063 1.22-4.5a9.172 9.172 0 0 1 3.28-3.281A8.686 8.686 0 0 1 23 15c1.626 0 3.126.406 4.5 1.219a9.172 9.172 0 0 1 3.282 3.281C31.594 20.938 32 22.438 32 24c0 1.563-.407 3.063-1.219 4.5a9.172 9.172 0 0 1-3.281 3.281A8.686 8.686 0 0 1 23 33Z" />
</svg>
