<svg xmlns="http://www.w3.org/2000/svg" height="1em" fill="currentColor" viewBox="0 0 512 512">
  <path
    d="M228.109 2.988Q221.136 0 217.152 5.977q-2.989 6.972 2.988 10.957h.996l.996.996q1.993.996 3.985 2.988 5.976 4.98 12.95 15.938 9.96 14.942 11.952 46.817-87.657.996-156.389 38.848-15.937 9.961-11.953 26.895 4.98 16.934 22.91 17.93l23.907.996-10.957 17.93q-7.969 14.942 1.992 28.888 12.95 11.953 28.887 4.98L256 170.335l106.584 49.805q15.937 6.973 27.89-4.98 10.958-13.946 1.993-28.888l-10.957-17.93h24.902q16.934-.996 22.911-17.93 2.988-17.93-11.953-26.894-66.74-36.857-150.413-39.845-1.992-35.86-13.945-54.786-8.965-13.945-16.934-19.922-2.989-2.988-5.977-4.98h-.996l-.996-.997h-.996q.996-1.992-2.988 6.973l2.988-6.973h.996Zm22.91 96.623q-.996 9.961-2.988 20.918-.996 6.973 6.973 8.965 6.973.996 8.965-5.976 1.992-12.95 2.988-22.911 79.689 1.992 143.44 36.856 4.98 2.988 2.988 8.965-.996 5.977-6.973 5.977h-38.848q-4.98 0-6.973 3.984-1.992 3.985 0 7.969l17.93 30.88q2.989 4.98 0 8.964-4.98 3.985-9.96 1.993l-109.573-51.798q-2.988-.996-6.972 0l-109.572 51.798q-5.977 1.992-9.962-1.993-2.988-3.984-.996-8.965l18.926-30.879q1.993-3.984 0-7.969-1.992-3.984-6.972-3.984l-37.852-.996q-5.977 0-7.97-5.977-.995-4.98 3.985-8.965 65.743-34.864 149.416-36.856ZM220.14 16.934Zm0 0ZM62.755 185.276Q17.93 232.093 16.934 304.81q1.992 90.646 68.731 139.456 66.74 50.801 170.335 51.797 103.595-.996 170.335-51.797 66.739-48.81 68.731-139.456-.996-72.716-45.82-119.533 4.98-5.976 8.964-13.945 50.802 51.797 52.794 133.478-2.988 98.615-74.708 152.405Q364.576 511.004 256 512q-108.576-.996-180.296-54.786T.996 304.809q1.992-81.68 52.794-133.478.996 1.992.996 2.988 3.984 5.977 7.969 10.957Z" />
</svg>
