<svg width="48" height="48" viewBox="0 0 48 48" fill="none" xmlns="http://www.w3.org/2000/svg">
<rect x="10" y="6" width="6" height="36" fill="#E3DFD2"/>
<rect x="32" y="6" width="6" height="36" fill="#E3DFD2"/>
<path d="M10 6V42H16V6H10ZM4 6C4.08333 4.33333 4.66667 2.91667 5.75 1.75C6.91667 0.666667 8.33333 0.0833333 10 0H16C17.6667 0.0833333 19.0833 0.666667 20.25 1.75C21.3333 2.91667 21.9167 4.33333 22 6V42C21.9167 43.6667 21.3333 45.0833 20.25 46.25C19.0833 47.3333 17.6667 47.9167 16 48H10C8.33333 47.9167 6.91667 47.3333 5.75 46.25C4.66667 45.0833 4.08333 43.6667 4 42V6ZM32 6V42H38V6H32ZM26 6C26.0833 4.33333 26.6667 2.91667 27.75 1.75C28.9167 0.666667 30.3333 0.0833333 32 0H38C39.6667 0.0833333 41.0833 0.666667 42.25 1.75C43.3333 2.91667 43.9167 4.33333 44 6V42C43.9167 43.6667 43.3333 45.0833 42.25 46.25C41.0833 47.3333 39.6667 47.9167 38 48H32C30.3333 47.9167 28.9167 47.3333 27.75 46.25C26.6667 45.0833 26.0833 43.6667 26 42V6Z" fill="#432818" fill-opacity="0.7"/>
</svg>
