<svg width="48" height="48" viewBox="0 0 48 48" fill="none" xmlns="http://www.w3.org/2000/svg">
<g clip-path="url(#clip0_115_4056)">
<path d="M39.5 23.134C40.1667 23.5189 40.1667 24.4811 39.5 24.866L9.5 42.1865C8.83334 42.5714 8 42.0903 8 41.3205L8 6.67949C8 5.90969 8.83334 5.42857 9.5 5.81347L39.5 23.134Z" fill="#E3DFD2"/>
<path d="M9.03877 42.2856L38.9608 23.9999L9.03877 5.71414V42.2856ZM6.64916 1.35051C8.3115 0.450075 9.97384 0.484707 11.6362 1.4544L41.5583 19.7401C43.0821 20.7098 43.8786 22.1297 43.9479 23.9999C43.8786 25.87 43.0821 27.2899 41.5583 28.2596L11.6362 46.5453C9.97384 47.515 8.3115 47.5496 6.64916 46.6492C4.98682 45.6795 4.12102 44.225 4.05176 42.2856V5.71414C4.12102 3.77475 4.98682 2.3202 6.64916 1.35051Z" fill="#432818" fill-opacity="0.7"/>
</g>
<defs>
<clipPath id="clip0_115_4056">
<rect width="48" height="48" fill="white"/>
</clipPath>
</defs>
</svg>
