<svg xmlns="http://www.w3.org/2000/svg" viewBox="0 0 48 48" fill="none">
	<path fill="#E3DFD2"
		d="M20.878 23.19a1 1 0 0 1 0 1.62L5.585 35.856A1 1 0 0 1 4 35.045v-22.09a1 1 0 0 1 1.585-.81L20.878 23.19ZM41.42 23.197a1 1 0 0 1 0 1.606L26.595 35.814A1 1 0 0 1 25 35.011V12.99a1 1 0 0 1 1.596-.803L41.42 23.197Z" />
	<path fill="#432818" fill-opacity=".7"
		d="M21 39.188c0 .812.281 1.468.844 1.968.5.563 1.156.844 1.968.844.625 0 1.188-.188 1.688-.563l21.563-15.656C47.687 25.344 48 24.75 48 24s-.313-1.344-.938-1.781L25.5 6.562A2.742 2.742 0 0 0 23.812 6c-.812 0-1.468.281-1.968.844C21.28 7.344 21 8 21 8.812v9.282L4.406 6.469A2.957 2.957 0 0 0 2.813 6c-.813 0-1.47.281-1.97.844C.282 7.344 0 8 0 8.812v30.376c0 .812.281 1.468.844 1.968.5.563 1.156.844 1.969.844.624 0 1.156-.156 1.593-.469L21 29.906v9.282Zm0-14.813L4.5 35.906V12L21 23.625v.75ZM41.906 24 25.5 35.906V12.094L41.906 24Z" />
</svg>
