<svg xmlns="http://www.w3.org/2000/svg" width="48" height="48" fill="none">
  <path fill="#606C38" d="m15 10 5.5 1 3-4.5 3 3.5H32l-2.5 4v5l-6-1.5-6 1.5v-5L15 10Z" />
  <path fill="#E07A5F"
    d="m8 17 6-3 3 6 6.5-1.5H30l3.5-4.5 5 3 4 4 .5 8.5-3.5 7.5-6.5 5-9.5 1-9.5-2.5L8 35l-2-4-1-5 3-9Z" />
  <path stroke="#432818" stroke-linecap="round" stroke-linejoin="round" stroke-width="4"
    d="M24 44c11.046 0 20-7.387 20-16.5 0-6.442-4.475-11.799-11-14.516L29.5 14.5 30 20l-6.5-2-6.5 2v-5.5l-3-1.516C8.022 15.837 4 21.394 4 27.5 4 36.613 12.954 44 24 44Z" />
  <path stroke="#432818" stroke-linecap="round" stroke-linejoin="round" stroke-width="4"
    d="m23.5 4 3.809 5.117L36 9.91l-6.337 4.573L31.5 21l-8-3-8 3 1.837-6.517L11 9.91l8.691-.793L23.5 4Z" />
</svg>
